<svg width="14" height="10" viewBox="0 0 14 10" fill="none" xmlns="http://www.w3.org/2000/svg">
<path d="M13.8601 1.75937L13.1588 1.05807C13.0653 0.964418 12.9577 0.91774 12.8359 0.91774C12.7145 0.91774 12.6069 0.964418 12.5135 1.05807L7.00007 6.57117L1.48692 1.05822C1.39342 0.964566 1.28582 0.917887 1.16426 0.917887C1.04265 0.917887 0.93504 0.964566 0.841585 1.05822L0.14033 1.75957C0.0466783 1.85303 0 1.96063 0 2.08224C0 2.20375 0.0468257 2.31136 0.14033 2.40481L6.6774 8.94203C6.77086 9.03554 6.87851 9.08226 7.00007 9.08226C7.12163 9.08226 7.22909 9.03554 7.3225 8.94203L13.8601 2.40481C13.9536 2.31131 14 2.2037 14 2.08224C14 1.96063 13.9536 1.85303 13.8601 1.75937Z" fill="#696969"/>
</svg>
