<svg width="23" height="17" viewBox="0 0 23 17" fill="none" xmlns="http://www.w3.org/2000/svg">
<path d="M20.2174 0.869568H3.17388C2.48201 0.869568 1.81848 1.14441 1.32925 1.63364C0.840029 2.12286 0.565186 2.78639 0.565186 3.47826L0.565186 13.913C0.565186 14.6049 0.840029 15.2684 1.32925 15.7577C1.81848 16.2469 2.48201 16.5217 3.17388 16.5217H20.2174C20.9092 16.5217 21.5728 16.2469 22.062 15.7577C22.5512 15.2684 22.8261 14.6049 22.8261 13.913V3.47826C22.8261 2.78639 22.5512 2.12286 22.062 1.63364C21.5728 1.14441 20.9092 0.869568 20.2174 0.869568ZM21.7826 13.913C21.7826 14.3282 21.6177 14.7263 21.3241 15.0198C21.0306 15.3134 20.6325 15.4783 20.2174 15.4783H3.17388C2.75876 15.4783 2.36064 15.3134 2.06711 15.0198C1.77357 14.7263 1.60866 14.3282 1.60866 13.913V3.47826C1.60866 3.06314 1.77357 2.66502 2.06711 2.37149C2.36064 2.07795 2.75876 1.91305 3.17388 1.91305H20.2174C20.6325 1.91305 21.0306 2.07795 21.3241 2.37149C21.6177 2.66502 21.7826 3.06314 21.7826 3.47826V13.913Z" fill="#696969"/>
<path d="M20.8661 3.10084C20.8251 3.0459 20.7737 2.99956 20.7148 2.96449C20.6559 2.92942 20.5907 2.9063 20.5229 2.89645C20.455 2.8866 20.3859 2.89021 20.3195 2.90708C20.253 2.92394 20.1906 2.95374 20.1357 2.99476L11.72 9.27649C11.6899 9.29907 11.6533 9.31128 11.6157 9.31128C11.578 9.31128 11.5414 9.29907 11.5113 9.27649L3.26089 2.96693C3.20642 2.92536 3.14429 2.89493 3.07806 2.87738C3.01183 2.85982 2.94279 2.85548 2.87488 2.8646C2.80698 2.87373 2.74153 2.89614 2.68228 2.93055C2.62304 2.96497 2.57115 3.01072 2.52958 3.06519C2.48802 3.11966 2.45759 3.18178 2.44003 3.24801C2.42247 3.31424 2.41813 3.38329 2.42725 3.45119C2.43638 3.5191 2.45879 3.58455 2.49321 3.64379C2.52762 3.70304 2.57337 3.75493 2.62784 3.79649L9.1148 8.75823L2.69915 13.593C2.64388 13.6342 2.59727 13.6859 2.56198 13.7452C2.5267 13.8044 2.50342 13.87 2.49349 13.9383C2.48356 14.0065 2.48716 14.076 2.5041 14.1428C2.52103 14.2097 2.55097 14.2725 2.59219 14.3278C2.63341 14.3831 2.68512 14.4297 2.74436 14.465C2.80359 14.5003 2.8692 14.5235 2.93743 14.5335C3.00566 14.5434 3.07518 14.5398 3.14202 14.5228C3.20886 14.5059 3.2717 14.476 3.32697 14.4348L9.97567 9.41562L10.8765 10.1113C11.0866 10.2721 11.3433 10.3601 11.6078 10.3619C11.8724 10.3638 12.1303 10.2795 12.3426 10.1217L13.2887 9.41562L20.0157 14.4348C20.0706 14.4758 20.1331 14.5055 20.1995 14.5224C20.2659 14.5392 20.335 14.5428 20.4029 14.533C20.4707 14.5231 20.5359 14.5 20.5948 14.465C20.6537 14.4299 20.7051 14.3836 20.7461 14.3287C20.7871 14.2737 20.8169 14.2113 20.8337 14.1448C20.8506 14.0784 20.8542 14.0093 20.8443 13.9415C20.8345 13.8737 20.8114 13.8084 20.7763 13.7495C20.7413 13.6906 20.6949 13.6392 20.64 13.5982L14.16 8.75649L20.76 3.82606C20.8695 3.7434 20.942 3.62095 20.9619 3.48522C20.9817 3.34949 20.9473 3.2114 20.8661 3.10084Z" fill="#696969"/>
</svg>
