<svg width="15" height="16" viewBox="0 0 15 16" fill="none" xmlns="http://www.w3.org/2000/svg">
<path d="M14.28 11.255L12.465 9.42499C12.165 9.12499 11.76 8.94499 11.385 8.94499C10.98 8.94499 10.62 9.10999 10.305 9.42499L9.25501 10.475C9.21001 10.445 9.15001 10.415 9.10501 10.4C9.10501 10.4 9.09001 10.4 9.09001 10.385L9.07501 10.37C8.94001 10.28 8.79001 10.19 8.61001 10.115C7.69501 9.54499 6.84001 8.74999 5.97001 7.68499C5.56501 7.17499 5.28001 6.72499 5.05501 6.22999C5.29501 6.03499 5.47501 5.83999 5.61001 5.68999L6.07501 5.22499C6.43501 4.89499 6.61501 4.51999 6.61501 4.12999C6.61501 3.72499 6.43501 3.34999 6.09001 2.98999L4.66501 1.56499C4.53001 1.42999 4.39501 1.29499 4.24501 1.15999C3.94501 0.874991 3.57001 0.709991 3.18001 0.709991C2.74501 0.709991 2.38501 0.859991 2.05501 1.18999L0.960008 2.28499C0.525008 2.68999 0.270008 3.19999 0.210008 3.82999V3.84499C0.180008 4.62499 0.300007 5.34499 0.630007 6.24499C1.15501 7.65499 1.95001 8.97499 3.13501 10.43C4.68001 12.17 6.42001 13.52 8.35501 14.45L8.40001 14.465C8.97001 14.72 10.05 15.2 11.25 15.275H11.415C12.21 15.275 12.81 15.02 13.305 14.48C13.485 14.27 13.68 14.075 13.845 13.895C13.98 13.79 14.07 13.685 14.16 13.58L14.28 13.46L14.31 13.43C14.94 12.74 14.94 11.9 14.28 11.255ZM13.755 12.92L13.605 13.07L13.59 13.1C13.515 13.19 13.455 13.265 13.38 13.325L13.335 13.37C13.155 13.55 12.945 13.76 12.735 14C12.39 14.375 12 14.54 11.415 14.54H11.295C10.245 14.465 9.28501 14.045 8.71501 13.79L8.68501 13.775C6.84001 12.89 5.17501 11.6 3.72001 9.94999C2.58001 8.56999 1.83001 7.30999 1.33501 5.98999C1.03501 5.16499 0.930008 4.56499 0.960008 3.88999C1.00501 3.45499 1.17001 3.10999 1.47001 2.83999L2.58001 1.72999C2.76001 1.54999 2.94001 1.47499 3.16501 1.47499C3.36001 1.47499 3.54001 1.56499 3.70501 1.71499L3.72001 1.72999C3.85501 1.84999 3.99001 1.98499 4.12501 2.11999L5.55001 3.54499C5.82001 3.81499 5.86501 4.02499 5.86501 4.14499C5.86501 4.26499 5.83501 4.44499 5.55001 4.69999L5.07001 5.17999C4.90501 5.35999 4.71001 5.55499 4.45501 5.76499L4.42501 5.79499L4.39501 5.83999C4.26001 6.01999 4.24501 6.18499 4.32001 6.42499L4.33501 6.48499L4.35001 6.54499C4.60501 7.09999 4.92001 7.60999 5.37001 8.17999C6.30001 9.31999 7.23001 10.175 8.22001 10.79L8.26501 10.82C8.38501 10.88 8.50501 10.94 8.61001 11C8.65501 11.045 8.71501 11.075 8.76001 11.09C8.82001 11.12 8.86501 11.135 8.89501 11.165L9.00001 11.24H9.03001L9.07501 11.255C9.16501 11.285 9.22501 11.285 9.27001 11.285C9.42001 11.285 9.55501 11.225 9.69001 11.09L10.815 9.96499C10.995 9.78499 11.16 9.70999 11.37 9.70999C11.595 9.70999 11.805 9.84499 11.925 9.96499L13.755 11.795C14.115 12.155 14.13 12.53 13.755 12.92Z" fill="#939393"/>
</svg>
