<svg width="22" height="22" viewBox="0 0 22 22" fill="none" xmlns="http://www.w3.org/2000/svg">
<path d="M3.8875 0.975102C3.55417 1.08343 3.3125 1.2876 2.35 2.25843C1.32083 3.30427 1.225 3.42927 1.03333 4.04177C0.945833 4.32093 0.9375 4.43344 0.9375 5.10427C0.9375 6.00427 1.0125 6.4126 1.35417 7.4376C2.1875 9.9376 3.97083 12.6543 6.41667 15.1418C8.825 17.5959 11.4875 19.4584 13.9708 20.4376C15.8458 21.1709 17.4792 21.2793 18.5208 20.7376C18.7167 20.6376 18.9958 20.3876 19.7958 19.5876C21.025 18.3626 21.0625 18.3043 21.0625 17.6668C21.0625 17.0043 21.0833 17.0293 19.275 15.2209C17.6167 13.5626 17.5417 13.5001 17.0583 13.4209C16.9167 13.4001 16.7208 13.4001 16.5917 13.4168C16.1542 13.4876 15.9708 13.6126 15.2208 14.3459C14.4333 15.1168 14.4375 15.1126 13.9 15.0709C13.125 15.0126 11.9917 14.4376 10.75 13.4751C10.1708 13.0251 9.0625 11.9334 8.58333 11.3334C7.63333 10.1418 6.9875 8.88343 6.92917 8.1001C6.8875 7.5626 6.8875 7.56677 7.64167 6.79177C8.37083 6.04594 8.5125 5.8376 8.57917 5.4126C8.625 5.12927 8.575 4.8126 8.4375 4.50843C8.34583 4.30427 8.10833 4.0501 6.77917 2.7251C5.0125 0.962601 5 0.954268 4.4 0.929268C4.19167 0.920935 3.99583 0.937602 3.8875 0.975102ZM4.69167 1.56677C4.89583 1.6501 7.79583 4.5251 7.925 4.77094C8.04583 5.0001 8.04583 5.37927 7.925 5.60427C7.87917 5.69594 7.625 5.98344 7.36667 6.2376L6.89583 6.70843L4.85417 4.66677L2.8125 2.6251L3.29167 2.14593C3.55417 1.87927 3.84583 1.62927 3.9375 1.58343C4.14167 1.48344 4.47083 1.4751 4.69167 1.56677ZM4.47083 5.0751L6.50417 7.10844L6.42083 7.36677C6.04167 8.49177 6.95 10.4501 8.75417 12.4001C10.1875 13.9501 11.8542 15.1251 13.1875 15.5251C13.675 15.6709 14.3625 15.6918 14.6833 15.5668L14.8833 15.4876L16.9333 17.5376L18.9792 19.5834L18.7083 19.8543C18.2042 20.3626 17.6958 20.5251 16.7333 20.4876C16.05 20.4584 15.5792 20.3709 14.7875 20.1084C11.425 19.0126 7.41667 15.8959 4.66667 12.2459C2.72083 9.6626 1.5875 7.13344 1.5125 5.22927C1.47917 4.31677 1.63333 3.8251 2.10833 3.32927C2.2625 3.17093 2.4 3.04177 2.4125 3.04177C2.425 3.04177 3.35417 3.95844 4.47083 5.0751ZM17.25 14.0834C17.475 14.2001 20.3583 17.1126 20.4375 17.3001C20.525 17.5126 20.5167 17.8584 20.4208 18.0626C20.375 18.1543 20.1292 18.4418 19.8583 18.7084L19.375 19.1876L17.3333 17.1459L15.2917 15.1043L15.7417 14.6543C16.2083 14.1834 16.3792 14.0501 16.6 13.9959C16.775 13.9501 17.0708 13.9918 17.25 14.0834Z" fill="#696969"/>
<path d="M10.6417 3.02926C10.6167 3.04592 10.5709 3.10842 10.5459 3.15842C10.4834 3.27509 10.5459 3.47926 10.6584 3.52092C10.6959 3.53342 10.9792 3.56259 11.2876 3.58759C13.2251 3.72509 14.9001 4.50426 16.2501 5.90426C16.8167 6.48759 17.1959 7.01259 17.5376 7.66676C18.0709 8.70426 18.3334 9.67092 18.4001 10.8334C18.4292 11.3834 18.4792 11.5001 18.6709 11.5001C18.9876 11.5001 19.0292 11.3668 18.9584 10.5626C18.7834 8.54176 17.9792 6.80842 16.5667 5.39176C15.3417 4.16676 13.8959 3.41676 12.1459 3.10009C11.7584 3.02926 10.7084 2.97926 10.6417 3.02926Z" fill="#696969"/>
<path d="M10.6084 5.51259C10.475 5.64592 10.4709 5.76676 10.5959 5.89176C10.6792 5.97092 10.75 5.99176 11.0834 6.01259C13.4084 6.15426 15.3292 7.79592 15.8542 10.0959C15.8917 10.2501 15.9375 10.5959 15.9542 10.8584C15.9959 11.4001 16.0459 11.5001 16.2709 11.5001C16.4834 11.5001 16.5417 11.4001 16.5417 11.0168C16.5417 10.2668 16.3292 9.43759 15.9375 8.64592C15.6125 7.99176 15.2667 7.52092 14.7375 7.01259C13.7542 6.07509 12.5125 5.52926 11.1167 5.43342C10.725 5.40426 10.7125 5.40842 10.6084 5.51259Z" fill="#696969"/>
<path d="M10.7083 7.86675C10.5833 7.90842 10.5 8.01675 10.5 8.13342C10.5 8.32092 10.6167 8.40009 10.9417 8.43342C11.7333 8.51675 12.3167 8.80009 12.825 9.35425C13.2375 9.80425 13.5417 10.5459 13.5417 11.0959C13.5417 11.4543 13.825 11.6251 14.0417 11.3959C14.1292 11.3001 14.1333 11.2709 14.1083 10.9668C14.0583 10.3709 13.8917 9.87092 13.5792 9.39175C13.0875 8.64175 12.3375 8.12092 11.4958 7.94592C11.1333 7.87092 10.7958 7.83342 10.7083 7.86675Z" fill="#696969"/>
</svg>
