<svg width="13" height="14" viewBox="0 0 13 14" fill="none" xmlns="http://www.w3.org/2000/svg">
<path d="M5.84082 0.803711C4.51953 1.04688 3.37695 2.04883 2.94043 3.34961C2.76172 3.88281 2.70312 4.54492 2.79101 5.08105C2.92871 5.91895 3.41211 6.79492 4.01269 7.29297L4.17968 7.43359L3.7959 7.62109C1.96191 8.52637 0.702146 10.2109 0.362302 12.2119C0.303708 12.5518 0.297849 12.7949 0.347653 12.8916C0.526364 13.2402 1.01562 13.3691 1.32031 13.1436C1.44629 13.0498 1.54004 12.8242 1.5957 12.4814C1.91797 10.4131 3.47363 8.77539 5.55078 8.3125C5.80273 8.25684 5.92578 8.24805 6.51465 8.24805C7.10351 8.24805 7.22656 8.25684 7.49609 8.31543C9.59668 8.7666 11.1172 10.3838 11.4805 12.5488C11.5215 12.7949 11.5625 12.9033 11.6709 13.0293C11.9082 13.3135 12.3066 13.3076 12.5586 13.0205C12.7607 12.7949 12.7783 12.6338 12.6699 12.1123C12.4004 10.8496 11.8525 9.81836 10.9678 8.90723C10.4287 8.35352 9.87207 7.94922 9.18945 7.61523L8.82031 7.43359L8.98437 7.29297C9.42675 6.92969 9.83398 6.32617 10.0391 5.74023C10.2002 5.28027 10.2353 5.04883 10.2324 4.46582C10.2295 3.97363 10.2236 3.91504 10.1387 3.58691C9.76953 2.18359 8.60058 1.09375 7.16504 0.81543C6.82812 0.750977 6.16308 0.742188 5.84082 0.803711ZM7.1123 2.08105C7.85937 2.27148 8.51269 2.83691 8.80859 3.55176C8.94922 3.88867 8.99902 4.19629 8.98144 4.60938C8.96093 5.02832 8.91406 5.22168 8.74121 5.58496C8.4248 6.23535 7.89453 6.68652 7.18261 6.90332C6.9541 6.9707 6.87793 6.97949 6.5 6.97949C6.12207 6.97949 6.0459 6.9707 5.81738 6.90332C5.12011 6.68945 4.57812 6.23828 4.26172 5.60254C4.10058 5.28027 4.03613 5.01367 4.01855 4.60938C3.98633 3.8916 4.20605 3.29688 4.69531 2.78711C5.33105 2.12207 6.23633 1.8584 7.1123 2.08105Z" fill="#939393"/>
</svg>
