<svg width="16" height="18" viewBox="0 0 16 18" fill="none" xmlns="http://www.w3.org/2000/svg">
<path d="M12.1904 1.15944C9.33181 0.613522 6.36322 0.613522 3.50458 1.15944C2.24018 1.43239 0.645943 2.96095 0.371073 4.16196C-0.123691 6.50939 -0.123691 8.91141 0.371073 11.2588C0.700916 12.4598 2.29516 13.9884 3.50458 14.2614C3.55955 14.2614 3.61453 14.316 3.61453 14.3705V17.8098C3.61453 17.9736 3.83443 18.0828 3.94437 17.919L5.59359 16.2267C5.59359 16.2267 6.91296 14.8619 7.13285 14.6435C7.13285 14.6435 7.18783 14.5889 7.2428 14.5889C8.89202 14.6435 10.5962 14.4797 12.2454 14.2068C13.5098 13.9338 15.1041 12.4053 15.3789 11.2042C15.8737 8.85682 15.8737 6.4548 15.3789 4.10737C15.0491 2.96095 13.4548 1.43239 12.1904 1.15944ZM12.2454 11.4226C11.9706 11.9685 11.6407 12.4053 11.091 12.6782C10.926 12.7328 10.7611 12.7874 10.5962 12.842C10.3763 12.7874 10.2114 12.7328 10.0465 12.6782C8.2873 11.9685 6.63809 10.9859 5.31872 9.56651C4.60406 8.74764 3.99934 7.81958 3.50458 6.83694C3.28469 6.34562 3.06479 5.90888 2.89987 5.41756C2.73495 4.98083 3.00982 4.5441 3.28468 4.21655C3.55955 3.889 3.8894 3.67064 4.27421 3.50686C4.54908 3.34309 4.82395 3.45227 5.04385 3.67064C5.48364 4.21655 5.92343 4.76246 6.25327 5.36297C6.47317 5.74511 6.41819 6.18184 6.03338 6.4548C5.92343 6.50939 5.86845 6.56398 5.75851 6.67316C5.70353 6.72776 5.59358 6.78235 5.53861 6.89153C5.42866 7.0553 5.42866 7.21908 5.48364 7.38285C5.92343 8.63845 6.74803 9.6211 8.01243 10.167C8.23233 10.2762 8.39725 10.3308 8.67212 10.3308C9.05694 10.2762 9.22186 9.83946 9.49673 9.6211C9.7716 9.40273 10.1014 9.40273 10.4313 9.56651C10.7062 9.73028 10.981 9.94864 11.3109 10.167C11.5857 10.3854 11.8606 10.5492 12.1355 10.7675C12.3004 10.8767 12.3554 11.1497 12.2454 11.4226ZM9.93652 7.32826C9.82657 7.32826 9.88154 7.32826 9.93652 7.32826C9.71662 7.32826 9.66165 7.21908 9.60667 7.0553C9.60667 6.94612 9.60668 6.78235 9.5517 6.67316C9.49673 6.4548 9.38678 6.23643 9.16689 6.07266C9.05694 6.01807 8.94699 5.96347 8.83704 5.90888C8.67212 5.85429 8.56217 5.85429 8.39725 5.85429C8.23233 5.7997 8.17736 5.69052 8.17736 5.52674C8.17736 5.41756 8.34228 5.30838 8.45223 5.30838C9.33181 5.36297 9.99149 5.85429 10.1014 6.89153C10.1014 6.94612 10.1014 7.0553 10.1014 7.10989C10.1014 7.21908 10.0465 7.32826 9.93652 7.32826ZM9.38678 4.92624C9.11191 4.81706 8.83704 4.70787 8.5072 4.65328C8.39725 4.65328 8.23233 4.59869 8.12238 4.59869C7.95746 4.59869 7.84751 4.48951 7.90249 4.32573C7.90249 4.16196 8.01244 4.05278 8.17736 4.10737C8.7271 4.16196 9.22186 4.27114 9.71663 4.48951C10.7062 4.98083 11.2559 5.7997 11.4208 6.89153C11.4208 6.94612 11.4208 7.00071 11.4208 7.0553C11.4208 7.16449 11.4208 7.27367 11.4208 7.43744C11.4208 7.49203 11.4208 7.54663 11.4208 7.60122C11.3658 7.81958 10.981 7.87417 10.926 7.60122C10.926 7.54663 10.8711 7.43744 10.8711 7.38285C10.8711 6.89153 10.7611 6.40021 10.5412 5.96348C10.2114 5.47215 9.82657 5.1446 9.38678 4.92624ZM12.3554 8.20172C12.1904 8.20172 12.0805 8.03795 12.0805 7.87417C12.0805 7.54663 12.0255 7.21908 11.9706 6.89153C11.7507 5.1446 10.3213 3.72523 8.61715 3.45227C8.34228 3.39768 8.06741 3.39768 7.84751 3.34309C7.68259 3.34309 7.4627 3.34309 7.40772 3.12472C7.35275 2.96095 7.51767 2.79718 7.68259 2.79718C7.73756 2.79718 7.79254 2.79718 7.79254 2.79718C10.0465 2.85177 7.90249 2.79718 7.79254 2.79718C10.1014 2.85177 12.0255 4.38033 12.4103 6.67316C12.4653 7.0553 12.5203 7.43744 12.5203 7.87417C12.6302 8.03795 12.5203 8.20172 12.3554 8.20172Z" fill="white"/>
</svg>
