<svg width="16" height="17" viewBox="0 0 16 17" fill="none" xmlns="http://www.w3.org/2000/svg">
<path d="M13.4451 3.04687C11.9634 1.57031 9.9878 0.75 7.90244 0.75C3.56707 0.75 0.0548772 4.25 0.0548772 8.57031C0.0548772 9.9375 0.439024 11.3047 1.09756 12.4531L0 16.5L4.17073 15.4062C5.32317 16.0078 6.58536 16.3359 7.90244 16.3359C12.2378 16.3359 15.75 12.8359 15.75 8.51563C15.6951 6.49219 14.9268 4.52344 13.4451 3.04687ZM11.689 11.3594C11.5244 11.7969 10.7561 12.2344 10.3719 12.2891C10.0427 12.3437 9.60366 12.3438 9.16463 12.2344C8.89024 12.125 8.5061 12.0156 8.06707 11.7969C6.09146 10.9766 4.82927 9.00781 4.71951 8.84375C4.60976 8.73438 3.89634 7.80469 3.89634 6.82031C3.89634 5.83594 4.39024 5.39844 4.55488 5.17969C4.71951 4.96094 4.93902 4.96094 5.10366 4.96094C5.21341 4.96094 5.37805 4.96094 5.4878 4.96094C5.59756 4.96094 5.76219 4.90625 5.92683 5.28906C6.09146 5.67187 6.47561 6.65625 6.53049 6.71094C6.58536 6.82031 6.58536 6.92969 6.53049 7.03906C6.47561 7.14844 6.42073 7.25781 6.31097 7.36719C6.20122 7.47656 6.09146 7.64062 6.03658 7.69531C5.92683 7.80469 5.81707 7.91406 5.92683 8.07812C6.03658 8.29687 6.42073 8.89844 7.02439 9.44531C7.79268 10.1016 8.39634 10.3203 8.61585 10.4297C8.83537 10.5391 8.94512 10.4844 9.05488 10.375C9.16463 10.2656 9.54878 9.82812 9.65854 9.60938C9.76829 9.39062 9.93293 9.44531 10.0976 9.5C10.2622 9.55469 11.25 10.0469 11.4146 10.1562C11.6341 10.2656 11.7439 10.3203 11.7988 10.375C11.8537 10.5391 11.8537 10.9219 11.689 11.3594Z" fill="white"/>
</svg>
